<?xml version="1.0" encoding="UTF-8"?>
<svg width="579px" height="75px" viewBox="0 0 579 75" version="1.1" xmlns="http://www.w3.org/2000/svg" xmlns:xlink="http://www.w3.org/1999/xlink">
    <title>V23Series</title>
    <g id="页面-1" stroke="none" stroke-width="1" fill="none" fill-rule="evenodd">
        <g id="bd-pc" transform="translate(-1474.000000, -3165.000000)" fill="#222933" fill-rule="nonzero">
            <g id="编组-19" transform="translate(1119.000000, 2688.000000)">
                <g id="编组-30" transform="translate(0.000000, -3.000000)">
                    <g id="编组-9" transform="translate(333.000000, 480.000000)">
                        <path d="M62.5987805,75 C66.4182927,75 69.4146341,74.1690408 71.5878049,72.5071225 C73.4317073,71.1111111 75.0780488,68.7511871 76.5268293,65.4273504 L76.5268293,65.4273504 L103,5 L89.0719512,5 L65.7597561,59.8433048 C64.9036585,61.7046534 63.85,62.6353276 62.5987805,62.6353276 C61.2158537,62.6353276 60.0963415,61.7046534 59.2402439,59.8433048 L59.2402439,59.8433048 L36.1256098,5 L22,5 L48.5719512,65.4273504 C49.954878,68.7511871 51.6341463,71.1443495 53.6097561,72.6068376 C55.7829268,74.2022792 58.7792683,75 62.5987805,75 Z M171.305585,74 L171.305585,62.7321937 L123.961627,62.7321937 L123.961627,59.2421652 C123.961627,55.9848053 124.825447,53.5584046 126.553086,51.962963 C128.280725,50.3675214 131.603108,48.9050332 136.520235,47.5754986 L136.520235,47.5754986 L151.371287,43.5868946 C158.746977,41.5925926 163.929894,39.3988604 166.920039,37.005698 C170.973346,33.7483381 173,29.0949668 173,23.045584 C173,16.331434 170.607884,11.4786325 165.823653,8.48717949 C161.105869,5.4957265 153.39794,4 142.699867,4 C132.732718,4 122.931688,4.997151 113.296778,6.99145299 L113.296778,6.99145299 L113.296778,18.4586895 C121.669183,16.331434 130.938631,15.2678063 141.105123,15.2678063 C148.215023,15.2678063 153.098926,15.8993352 155.756832,17.1623932 C158.348291,18.3589744 159.64402,20.5194682 159.64402,23.6438746 C159.64402,26.3694207 158.481186,28.4966762 156.155518,30.025641 C154.427879,31.1557455 151.205168,32.3523267 146.487384,33.6153846 L146.487384,33.6153846 L129.642902,37.7037037 C120.60602,40.1633428 115.090865,43.7198481 113.097435,48.3732194 C111.635586,51.4976258 110.937886,55.3865147 111.004334,60.039886 L111.004334,60.039886 L111.004334,74 L171.305585,74 Z M210.632588,75 C222.385517,75 231.035144,73.2051282 236.58147,69.6153846 C242.193823,65.9591643 245,60.3418803 245,52.7635328 C245,40.1994302 236.944622,33.8176638 220.833866,33.6182336 L220.833866,33.6182336 L216.57508,33.6182336 L239.15655,16.6666667 C241.797657,14.7388414 243.118211,12.5118708 243.118211,9.98575499 C243.118211,6.86134853 241.269436,5.1994302 237.571885,5 L237.571885,5 L184.188498,5 L184.188498,15.968661 L224.399361,15.968661 L199.242812,34.5156695 L199.242812,42.991453 L215.980831,42.991453 C221.659212,42.991453 225.653887,43.6562203 227.964856,44.985755 C230.539936,46.4482431 231.827476,49.0075973 231.827476,52.6638177 C231.827476,56.7853751 230.242812,59.677113 227.073482,61.3390313 C223.838126,63.0674264 218.258786,63.9316239 210.335463,63.9316239 C200.43131,63.9316239 191.319489,62.9012346 183,60.8404558 L183,60.8404558 L183,72.008547 C190.593184,74.002849 199.804047,75 210.632588,75 Z M316.903537,75 C328.067524,75 336.207931,73.4089636 341.324759,70.2268908 C346.441586,67.0448179 349,61.9402428 349,54.9131653 C349,49.1456583 347.205788,44.7040149 343.617363,41.5882353 C340.560557,38.9365079 335.775991,36.8482726 329.263666,35.3235294 L329.263666,35.3235294 L311.720257,31.8431373 C307.600214,30.7824463 304.742765,29.7217554 303.14791,28.6610644 C301.154341,27.2689076 300.157556,25.3464052 300.157556,22.8935574 C300.157556,20.0429505 301.42015,18.054155 303.945338,16.9271709 C306.736334,15.6676004 311.819936,15.0378151 319.196141,15.0378151 C328.433012,15.0378151 337.138264,15.9659197 345.311897,17.8221289 L345.311897,17.8221289 L345.311897,6.58543417 C337.869239,4.86181139 328.96463,4 318.598071,4 C307.367631,4 299.293676,5.52474323 294.376206,8.57422969 C289.458735,11.6237162 287,16.5294118 287,23.2913165 C287,28.9925303 288.827438,33.3678805 292.482315,36.4173669 C295.406217,38.8702148 300.057878,40.8590103 306.437299,42.3837535 L306.437299,42.3837535 L324.379421,46.0630252 C328.565916,47.1237162 331.456592,48.2507003 333.051447,49.4439776 C334.912111,50.8361345 335.842444,52.7586368 335.842444,55.2114846 C335.842444,58.3272642 334.513398,60.5149393 331.855305,61.7745098 C329.064309,63.1003735 324.113612,63.7633053 317.003215,63.7633053 C306.902465,63.7633053 297.200429,62.5037348 287.897106,59.9845938 L287.897106,59.9845938 L287.897106,71.5196078 C296.270096,73.8398693 305.938907,75 316.903537,75 Z M388.84261,75 C397.159949,75 403.514395,74.1399491 407.90595,72.4198473 L407.90595,72.4198473 L407.90595,62.2977099 C401.584773,64.1501272 395.596289,65.0763359 389.940499,65.0763359 C383.353167,65.1424936 378.662188,64.216285 375.867562,62.2977099 C373.006398,60.3791349 371.3762,57.1704835 370.976967,52.6717557 L370.976967,52.6717557 L410.401152,52.6717557 C410.800384,50.2900763 411,47.5776081 411,44.5343511 C411,38.1170483 409.103647,33.0559796 405.31094,29.351145 C400.985925,25.1170483 394.431862,23 385.648752,23 C377.065259,23 370.511196,25.1170483 365.986564,29.351145 C361.328855,33.7175573 359,40.2010178 359,48.8015267 C359,57.9312977 361.262316,64.5470738 365.786948,68.648855 C370.444658,72.8829517 378.129878,75 388.84261,75 Z M397.987506,45 L370,45 C370.466458,40.8319328 371.899152,37.7731092 374.298081,35.8235294 C376.630373,33.9411765 380.128812,33 384.793396,33 C389.591254,33 393.056374,34.0084034 395.188755,36.0252101 C397.187863,37.907563 398.120779,40.8991597 397.987506,45 L397.987506,45 Z M435.156863,74 L435.156863,36.4472656 C441.235294,35.5839844 448.849673,35.0527344 458,34.8535156 L458,34.8535156 L458,23 C449.372549,23.0664063 441.366013,24.9589844 433.980392,28.6777344 L433.980392,28.6777344 L428.980392,24.8925781 C427.542484,23.6308594 426.300654,23 425.254902,23 C423.751634,23 423,23.8300781 423,25.4902344 L423,25.4902344 L423,74 L435.156863,74 Z M472.585098,15.1 C473.85358,16.3 475.08868,16.3 476.2904,15.1 L476.2904,15.1 L481.998567,9.9 C483.333811,8.76666667 483.333811,7.53333333 481.998567,6.2 L481.998567,6.2 L476.2904,0.9 C475.08868,-0.3 473.85358,-0.3 472.585098,0.9 L472.585098,0.9 L466.87693,6.2 C465.675211,7.53333333 465.708592,8.76666667 466.977074,9.9 L466.977074,9.9 L472.585098,15.1 Z M481,74 L481,24 L469,24 L469,74 L481,74 Z M522.84261,75 C531.159949,75 537.514395,74.1399491 541.90595,72.4198473 L541.90595,72.4198473 L541.90595,62.2977099 C535.584773,64.1501272 529.596289,65.0763359 523.940499,65.0763359 C517.353167,65.1424936 512.662188,64.216285 509.867562,62.2977099 C507.006398,60.3791349 505.3762,57.1704835 504.976967,52.6717557 L504.976967,52.6717557 L544.401152,52.6717557 C544.800384,50.2900763 545,47.5776081 545,44.5343511 C545,38.1170483 543.103647,33.0559796 539.31094,29.351145 C534.985925,25.1170483 528.431862,23 519.648752,23 C511.065259,23 504.511196,25.1170483 499.986564,29.351145 C495.328855,33.7175573 493,40.2010178 493,48.8015267 C493,57.9312977 495.262316,64.5470738 499.786948,68.648855 C504.444658,72.8829517 512.129878,75 522.84261,75 Z M532.987506,45 L505,45 C505.466458,40.8319328 506.899152,37.7731092 509.298081,35.8235294 C511.630373,33.9411765 515.128812,33 519.793396,33 C524.591254,33 528.056374,34.0084034 530.188755,36.0252101 C532.187863,37.907563 533.120779,40.8991597 532.987506,45 L532.987506,45 Z M577.251627,75 C585.500362,75 591.520607,73.7430025 595.312364,71.2290076 C599.104121,68.7150127 601,64.778626 601,59.4198473 C601,54.9211196 599.503254,51.5139949 596.509761,49.1984733 C594.114967,47.346056 590.289949,45.8575064 585.034707,44.7328244 L585.034707,44.7328244 L575.056399,42.8473282 C571.996385,42.1857506 569.934201,41.5572519 568.869848,40.9618321 C567.605929,40.2340967 566.97397,39.1094148 566.97397,37.5877863 C566.97397,35.8676845 567.772234,34.6437659 569.368764,33.9160305 C571.164859,33.1221374 574.324657,32.7251908 578.848156,32.7251908 C585.500362,32.7251908 591.720174,33.5521628 597.507592,35.2061069 L597.507592,35.2061069 L597.507592,25.0839695 C592.385394,23.6946565 586.09906,23 578.64859,23 C570.266811,23 564.213304,24.1908397 560.488069,26.5725191 C556.829356,28.8880407 555,32.6259542 555,37.7862595 C555,42.2188295 556.396963,45.5928753 559.190889,47.9083969 C561.452639,49.7608142 565.177874,51.216285 570.366594,52.2748092 L570.366594,52.2748092 L581.143167,54.4580153 C583.870571,54.9872774 585.832972,55.6157761 587.030369,56.3435115 C588.36081,57.1374046 589.02603,58.3282443 589.02603,59.9160305 C589.02603,61.7022901 588.161244,63.0254453 586.43167,63.8854962 C584.502531,64.8117048 581.276211,65.2748092 576.752711,65.2748092 C569.501808,65.2748092 562.45047,64.1832061 555.598698,62 L555.598698,62 L555.598698,72.1221374 C561.120029,74.0407125 568.337672,75 577.251627,75 Z" id="V23Series"></path>
                    </g>
                </g>
            </g>
        </g>
    </g>
</svg>